<?xml version="1.0" encoding="UTF-8" standalone="no"?>
<!-- Created with Inkscape (http://www.inkscape.org/) -->

<svg
   xmlns:dc="http://purl.org/dc/elements/1.1/"
   xmlns:cc="http://creativecommons.org/ns#"
   xmlns:rdf="http://www.w3.org/1999/02/22-rdf-syntax-ns#"
   xmlns:svg="http://www.w3.org/2000/svg"
   xmlns="http://www.w3.org/2000/svg"
   xmlns:sodipodi="http://sodipodi.sourceforge.net/DTD/sodipodi-0.dtd"
   xmlns:inkscape="http://www.inkscape.org/namespaces/inkscape"
   width="100"
   height="100"
   viewBox="0 0 99.999997 99.999997"
   id="svg2"
   version="1.1"
   inkscape:version="0.91 r13725"
   sodipodi:docname="icon.svg">
  <defs
     id="defs4" />
  <sodipodi:namedview
     id="base"
     pagecolor="#ffffff"
     bordercolor="#666666"
     borderopacity="1.0"
     inkscape:pageopacity="0.0"
     inkscape:pageshadow="2"
     inkscape:zoom="3.959798"
     inkscape:cx="57.454275"
     inkscape:cy="46.064346"
     inkscape:document-units="px"
     inkscape:current-layer="layer1"
     showgrid="false"
     units="px"
     inkscape:window-width="1280"
     inkscape:window-height="724"
     inkscape:window-x="0"
     inkscape:window-y="24"
     inkscape:window-maximized="1" />
  <metadata
     id="metadata7">
    <rdf:RDF>
      <cc:Work
         rdf:about="">
        <dc:format>image/svg+xml</dc:format>
        <dc:type
           rdf:resource="http://purl.org/dc/dcmitype/StillImage" />
        <dc:title></dc:title>
      </cc:Work>
    </rdf:RDF>
  </metadata>
  <g
     inkscape:label="Layer 1"
     inkscape:groupmode="layer"
     id="layer1"
     transform="translate(0,-952.36222)">
    <path
       style="opacity:1;fill:none;fill-opacity:1;fill-rule:evenodd;stroke:#000000;stroke-width:8.9854002;stroke-miterlimit:4;stroke-dasharray:none;stroke-opacity:1"
       d="M 94.983605,1014.5104 62.053328,1047.3578 17.06972,1035.3347 5.0163947,990.46437 37.94668,957.61691 82.930288,969.63992 Z"
       id="path8360"
       inkscape:connector-curvature="0" />
    <path
       d="m 62.190337,1008.0341 c 3.347729,3.273 6.663379,6.579 10.019801,9.8435 -0.446998,1.6725 -1.132039,3.3818 -2.507262,4.5092 -1.149917,0.9925 -2.622104,1.4725 -4.070907,1.8333 -3.277862,-3.4056 -6.572354,-6.794 -9.852068,-10.1978 -5.6468,-6.2367 -10.166945,-9.7227 -18.554969,-19.43674 -2.363638,2.48865 -4.718071,4.98691 -7.115428,7.44314 -2.927852,-2.98691 -5.884293,-5.94559 -8.826984,-8.91772 5.546662,-5.55214 11.155362,-11.04202 16.73261,-16.56346 4.82182,1.31269 9.637456,2.64841 14.463822,3.94546 -3.29809,2.9942 -5.833685,5.24689 -9.143312,8.22822 8.369997,7.48235 16.139571,16.4966 18.854697,19.3129 z"
       id="path4212"
       inkscape:connector-curvature="0"
       style="fill:#000000;fill-opacity:1;stroke:none;stroke-width:3;stroke-miterlimit:4;stroke-dasharray:none;stroke-opacity:0"
       sodipodi:nodetypes="cccccccccccc" />
  </g>
</svg>
